<?xml version="1.0" standalone="no"?>
<!DOCTYPE svg PUBLIC "-//W3C//DTD SVG 20010904//EN"
 "http://www.w3.org/TR/2001/REC-SVG-20010904/DTD/svg10.dtd">
<svg version="1.0" xmlns="http://www.w3.org/2000/svg"
 width="459.000000pt" height="459.000000pt" viewBox="0 0 459.000000 459.000000"
 preserveAspectRatio="xMidYMid meet">

<g transform="translate(0.000000,459.000000) scale(0.100000,-0.100000)"
fill="#000000" stroke="none">
<path d="M3557 4241 c-46 -55 -81 -140 -85 -207 -4 -57 -2 -65 21 -88 38 -38
87 -36 121 5 24 28 26 38 26 122 -1 92 -23 186 -47 194 -6 2 -22 -10 -36 -26z"/>
<path d="M3110 4209 c-18 -74 -16 -216 4 -261 32 -74 102 -100 146 -53 34 36
29 100 -13 190 -35 73 -103 175 -117 175 -4 0 -14 -23 -20 -51z"/>
<path d="M3899 4055 c-61 -32 -135 -114 -143 -160 -11 -56 -1 -75 41 -75 76 0
143 75 169 188 19 81 10 87 -67 47z"/>
<path d="M2657 4054 c-18 -18 76 -158 149 -223 54 -47 105 -61 143 -40 95 53
-45 206 -234 258 -47 13 -50 13 -58 5z"/>
<path d="M3957 3744 c-36 -11 -55 -25 -77 -56 -52 -71 -30 -118 49 -103 36 7
276 128 286 146 19 29 -172 39 -258 13z"/>
<path d="M3450 3700 c-133 -51 -305 -136 -393 -195 l-67 -45 -1303 -2 -1302
-3 0 -550 0 -550 37 -3 c44 -4 42 -14 58 234 21 326 79 462 232 540 91 46 168
53 574 54 l372 0 5 -42 c2 -24 4 -596 3 -1273 -1 -1205 -2 -1231 -21 -1269
-34 -68 -61 -80 -183 -86 l-107 -5 -3 -27 -3 -28 499 0 c448 0 500 2 506 16 3
9 4 19 1 23 -2 5 -50 11 -105 15 -141 10 -167 21 -195 90 -13 30 -15 214 -15
1311 l0 1275 613 2 c336 1 638 2 670 3 l58 0 73 206 c40 113 85 232 100 264
29 63 32 85 14 85 -7 0 -60 -19 -118 -40z"/>
<path d="M2552 3684 c-48 -24 -70 -54 -38 -54 7 0 67 -18 134 -40 128 -43 176
-49 208 -26 18 14 18 17 4 58 -21 61 -76 88 -180 88 -62 0 -86 -5 -128 -26z"/>
<path d="M4055 3586 c-44 -17 -77 -51 -73 -75 2 -9 16 -22 31 -29 35 -17 119
3 227 54 67 32 73 37 55 47 -32 18 -193 20 -240 3z"/>
<path d="M3915 3373 c-75 -10 -157 -61 -215 -135 -22 -27 -40 -53 -40 -57 0
-3 98 -6 218 -6 172 0 234 -4 301 -18 46 -10 85 -16 88 -13 11 10 -30 67 -86
118 -89 83 -182 122 -266 111z"/>
<path d="M2280 2893 c0 -5 -1 -418 -3 -919 -2 -864 -3 -911 -20 -929 -33 -33
-6 -40 156 -41 197 -2 237 2 237 27 0 14 -9 18 -47 21 -47 3 -48 4 -55 43 -3
22 -7 246 -7 498 l-1 457 180 0 c249 0 270 -11 270 -136 0 -54 0 -55 28 -52
l27 3 0 260 0 260 -27 3 c-27 3 -28 1 -28 -40 0 -53 -27 -108 -60 -125 -18 -9
-76 -12 -205 -10 l-180 2 -3 296 -2 297 27 5 c16 3 174 5 353 4 l325 -2 3 -63
c3 -62 3 -63 30 -60 l27 3 0 93 c0 71 -4 95 -15 102 -18 11 -1010 14 -1010 3z"/>
</g>
</svg>
